<svg width="68" height="68" fill="none" xmlns="http://www.w3.org/2000/svg"><path d="M25.667 25.083v17.834c0 1.277.583 2.25 1.75 2.916 1.166.667 2.305.611 3.416-.166l13.834-8.834c1.055-.666 1.583-1.61 1.583-2.833 0-1.222-.528-2.167-1.583-2.833l-13.834-8.834c-1.11-.777-2.25-.833-3.416-.166-1.167.666-1.75 1.639-1.75 2.916zM34 67.333c-4.611 0-8.945-.875-13-2.626-4.056-1.75-7.583-4.124-10.583-7.124S5.042 51.056 3.293 47C1.543 42.944.667 38.611.667 34c0-4.611.875-8.944 2.626-13 1.75-4.055 4.124-7.583 7.124-10.583S16.944 5.04 21 3.29C25.055 1.541 29.389.667 34 .667c4.611 0 8.944.874 13 2.623 4.056 1.751 7.583 4.127 10.583 7.127S62.958 16.945 64.707 21c1.75 4.056 2.626 8.389 2.626 13 0 4.611-.875 8.944-2.626 13-1.75 4.056-4.124 7.583-7.124 10.583S51.056 62.958 47 64.707c-4.056 1.75-8.389 2.626-13 2.626z" fill="#fff"/></svg>