<svg width="25" height="24" fill="none" xmlns="http://www.w3.org/2000/svg"><path d="M17.972 15.73H16.97l-.355-.342a8.23 8.23 0 001.875-6.761c-.595-3.52-3.534-6.331-7.082-6.762A8.246 8.246 0 002.577 7.37a8.232 8.232 0 00-.379 3.701c.431 3.546 3.244 6.483 6.766 7.078a8.24 8.24 0 006.765-1.873l.343.354v1l5.384 5.382a1.34 1.34 0 001.888 0c.52-.52.52-1.368 0-1.887l-5.372-5.394zm-7.602 0a5.692 5.692 0 01-5.701-5.698 5.692 5.692 0 015.701-5.698 5.692 5.692 0 015.702 5.698 5.692 5.692 0 01-5.702 5.698z" fill="#3D348B"/></svg>