<?xml version="1.0" encoding="utf-8"?><svg viewBox="0 0 108 68" xmlns="http://www.w3.org/2000/svg" xmlns:xlink="http://www.w3.org/1999/xlink"><style>:root>svg{display:none}:root>svg:target{display:block}</style><svg viewBox="0 0 10 10" id="arrow-down" xmlns="http://www.w3.org/2000/svg"><path d="M5 8c-.12 0-.235-.02-.347-.057a.85.85 0 0 1-.28-.153L.246 4.28A.67.67 0 0 1 0 3.744a.67.67 0 0 1 .247-.534A.935.935 0 0 1 .874 3c.255 0 .464.07.628.21L5 6.187 8.498 3.21A.935.935 0 0 1 9.126 3c.254 0 .463.07.627.21a.67.67 0 0 1 .247.534.67.67 0 0 1-.247.535L5.628 7.79a.807.807 0 0 1-.292.162A1.142 1.142 0 0 1 5 8Z"/></svg><svg viewBox="0 0 12 8" id="arrow-right-purple" xmlns="http://www.w3.org/2000/svg"><path d="M7.5 7.705v-3H.81L.788 3.197H7.5V.205l3.75 3.75-3.75 3.75Z"/></svg><svg viewBox="0 0 4 6" id="arrow-right-sm" xmlns="http://www.w3.org/2000/svg"><path d="M1.478 5.746 3.74 3.582a.864.864 0 0 0 .196-.27A.754.754 0 0 0 4 3a.754.754 0 0 0-.065-.312.864.864 0 0 0-.196-.27L1.48.254C1.202-.009.887-.068.532.078.178.223 0 .483 0 .858v4.284c0 .375.178.635.533.78.355.146.67.087.945-.176Z"/></svg><svg viewBox="0 0 12 8" id="arrow-right-white" xmlns="http://www.w3.org/2000/svg"><path d="M7.5 7.705v-3H.81L.788 3.197H7.5V.205l3.75 3.75-3.75 3.75Z"/></svg><svg viewBox="0 0 108 30" id="logo" xmlns="http://www.w3.org/2000/svg"><path fill-rule="evenodd" clip-rule="evenodd" d="m101.612 30-3.628-14.422c-.438-1.73-.727-3.461-1.016-5.048h-.147c-.289 1.731-.435 3.318-.87 5.192L92.32 30h-6.242L94.353.002h4.936L108 30h-6.388ZM6.387.002l3.63 14.422c.58 1.73.725 3.462 1.015 5.047h.146c.29-1.73.435-3.462.87-5.192L15.679.002h6.242L13.646 30H8.71L0 .002h6.387Zm20.031 0h5.952V30h-5.952V.002Zm39.631 0 3.047 17.74L71.564.002h7.984L82.596 30H76.5L75.048 8.367l-1.016 7.355L71.564 30h-4.645l-2.903-14.422-1.017-6.634v-.577h-.145L61.984 30h-6.389L58.21.002h7.84Zm-18.872 0c-1.016.721-1.74 2.018-2.322 3.316-1.596 3.606.145 6.49 1.596 9.086.146.289.438.721.581 1.154 3.34 5.48 4.5 9.518 2.179 15.286L48.63 30h-7.259c.871-.722 1.741-1.73 2.177-2.885 1.743-3.894-.29-7.499-2.177-11.106-2.176-4.182-4.5-8.508-2.032-14.421.146-.577.727-1.587.727-1.587h7.111v.002Z"/></svg><svg viewBox="0 0 26 20" id="mail" xmlns="http://www.w3.org/2000/svg"><path d="M23 0H3A2.497 2.497 0 0 0 .513 2.5L.5 17.5C.5 18.875 1.625 20 3 20h20c1.375 0 2.5-1.125 2.5-2.5v-15C25.5 1.125 24.375 0 23 0Zm-.5 5.313-8.838 5.525c-.4.25-.925.25-1.325 0L3.5 5.313a1.062 1.062 0 1 1 1.125-1.8L13 8.75l8.375-5.237a1.062 1.062 0 1 1 1.125 1.8Z"/></svg><svg viewBox="0 0 30 30" id="map-icon" xmlns="http://www.w3.org/2000/svg"><path d="M15 1.875A10.325 10.325 0 0 0 4.688 12.188a10.208 10.208 0 0 0 2.077 6.187s.281.37.327.424L15 28.125l7.912-9.33c.04-.05.323-.42.323-.42v-.003a10.205 10.205 0 0 0 2.078-6.184A10.324 10.324 0 0 0 15 1.874Zm0 14.063a3.75 3.75 0 1 1 0-7.5 3.75 3.75 0 0 1 0 7.5Z"/></svg><svg viewBox="0 0 24 24" id="phone" xmlns="http://www.w3.org/2000/svg"><path d="M5.275 10.488c1.8 3.537 4.7 6.425 8.237 8.237l2.75-2.75c.338-.338.838-.45 1.276-.3 1.4.462 2.912.712 4.462.712.688 0 1.25.563 1.25 1.25V22c0 .688-.563 1.25-1.25 1.25C10.262 23.25.75 13.738.75 2 .75 1.312 1.313.75 2 .75h4.375c.688 0 1.25.563 1.25 1.25 0 1.563.25 3.063.713 4.463.137.437.037.925-.313 1.274l-2.75 2.75Z"/></svg><svg viewBox="0 0 68 68" id="play" xmlns="http://www.w3.org/2000/svg"><path d="M25.667 25.083v17.834c0 1.277.583 2.25 1.75 2.916 1.166.667 2.305.611 3.416-.166l13.834-8.834c1.055-.666 1.583-1.61 1.583-2.833 0-1.222-.528-2.167-1.583-2.833l-13.834-8.834c-1.11-.777-2.25-.833-3.416-.166-1.167.666-1.75 1.639-1.75 2.916ZM34 67.333c-4.611 0-8.945-.875-13-2.626-4.056-1.75-7.583-4.124-10.583-7.124S5.042 51.056 3.293 47C1.543 42.944.667 38.611.667 34c0-4.611.875-8.944 2.626-13 1.75-4.055 4.124-7.583 7.124-10.583S16.944 5.04 21 3.29C25.055 1.541 29.389.667 34 .667c4.611 0 8.944.874 13 2.623 4.056 1.751 7.583 4.127 10.583 7.127S62.958 16.945 64.707 21c1.75 4.056 2.626 8.389 2.626 13 0 4.611-.875 8.944-2.626 13-1.75 4.056-4.124 7.583-7.124 10.583S51.056 62.958 47 64.707c-4.056 1.75-8.389 2.626-13 2.626Z"/></svg><svg viewBox="0 0 25 24" id="search" xmlns="http://www.w3.org/2000/svg"><path d="M17.972 15.73H16.97l-.355-.342a8.23 8.23 0 0 0 1.875-6.761c-.595-3.52-3.534-6.331-7.082-6.762A8.246 8.246 0 0 0 2.577 7.37a8.232 8.232 0 0 0-.379 3.701c.431 3.546 3.244 6.483 6.766 7.078a8.24 8.24 0 0 0 6.765-1.873l.343.354v1l5.384 5.382a1.34 1.34 0 0 0 1.888 0c.52-.52.52-1.368 0-1.887l-5.372-5.394Zm-7.602 0a5.692 5.692 0 0 1-5.701-5.698 5.692 5.692 0 0 1 5.701-5.698 5.692 5.692 0 0 1 5.702 5.698 5.692 5.692 0 0 1-5.702 5.698Z"/></svg><svg version="1.0" viewBox="0 0 1280 959" id="success" xmlns="http://www.w3.org/2000/svg"><path d="M1224.3 1.5c-2.9.8-7 2.3-9.1 3.4C1213 6 1032 126.4 812.7 272.4 593.5 418.5 413.6 538.2 412.8 538.5c-.7.2-78.2-57.4-172.3-128.2C129.1 326.5 67.3 280.7 63.2 278.7c-5.1-2.4-8.1-3.1-15.3-3.5-10.1-.5-15.5.6-24.1 5.1C4 290.6-5.1 315.4 3.3 335.8 4.6 339 80.5 463 172 611.5 263.4 760 346.4 894.8 356.4 911c11.8 19.3 19.9 31.3 23.2 34.7 14.4 14.6 36.8 17.2 55.1 6.5 3.1-1.8 65.8-67.2 195.1-203.7 104.9-110.6 207.3-218.6 227.7-240 62.6-66 394.7-416.5 407.8-430.4 15-15.9 18.5-34.6 10-52.8-3.3-7-12.9-16.9-19.6-20.2-10.5-5.1-21.3-6.3-31.4-3.6z"/></svg></svg>